<?xml version="1.0" standalone="no"?>
<!DOCTYPE svg PUBLIC "-//W3C//DTD SVG 20010904//EN"
 "http://www.w3.org/TR/2001/REC-SVG-20010904/DTD/svg10.dtd">
<svg version="1.0" xmlns="http://www.w3.org/2000/svg"
 width="16.000000pt" height="16.000000pt" viewBox="0 0 16.000000 16.000000"
 preserveAspectRatio="xMidYMid meet">
<metadata>
Created by potrace 1.11, written by Peter Selinger 2001-2013
</metadata>
<g transform="translate(0.000000,16.000000) scale(0.006154,-0.006154)"
fill="#000000" stroke="none">
<path d="M1165 2582 c-2 -2 -77 -6 -167 -8 -90 -3 -174 -5 -188 -6 -14 0 -40
2 -57 5 -47 8 -49 3 -58 -158 -4 -81 -5 -119 -5 -220 1 -148 -8 -474 -13 -482
-4 -6 -2 -24 2 -41 6 -18 5 -48 0 -73 -6 -27 -6 -52 0 -70 9 -25 7 -27 -20
-31 -16 -3 -29 -2 -29 1 0 5 -57 6 -70 1 -17 -6 -40 -7 -40 -2 0 6 -236 16
-290 12 -8 0 -57 -1 -109 -3 -147 -3 -148 -1 76 -224 192 -191 202 -205 203
-277 1 -20 52 -86 67 -86 3 0 13 -7 22 -15 40 -39 114 -82 154 -90 9 -2 21 -7
27 -10 11 -7 70 47 70 63 0 19 41 90 64 113 24 23 88 49 121 49 27 0 52 -19
150 -117 80 -80 86 -90 85 -145 -1 -71 116 -234 189 -264 67 -28 95 -70 110
-164 8 -47 15 -59 57 -97 75 -66 101 -84 174 -119 19 -9 47 -23 63 -31 15 -8
40 -17 54 -19 15 -3 32 -9 38 -14 5 -4 28 -10 50 -14 22 -3 55 -10 73 -15 29
-9 32 -8 32 11 0 11 -11 29 -24 39 -52 41 -85 155 -89 313 -2 42 6 83 24 135
30 88 49 131 59 131 3 0 22 14 41 31 19 17 50 41 69 54 19 12 48 37 65 54 16
18 56 44 88 58 61 27 77 46 77 86 0 32 66 72 135 82 6 1 23 7 38 13 16 7 31
12 35 12 13 1 48 35 57 55 14 33 6 117 -15 158 -11 21 -20 42 -20 47 0 5 -11
21 -25 36 -14 15 -25 33 -25 40 0 7 -10 21 -23 31 -13 10 -27 32 -31 48 -4 17
-28 50 -53 73 -39 38 -44 47 -35 65 47 101 58 143 49 192 -13 77 -27 97 -92
132 -91 49 -104 52 -163 37 -173 -45 -343 -61 -377 -38 -24 17 -108 18 -138 2
-12 -6 -42 -11 -67 -9 -35 1 -50 7 -67 29 -13 15 -23 34 -23 43 0 9 -12 29
-26 44 -24 26 -28 27 -99 22 -48 -4 -77 -2 -81 4 -4 6 -5 32 -4 58 1 25 2 84
1 131 -1 47 -1 119 -2 160 0 41 6 96 14 122 l15 46 -60 4 c-33 2 -61 1 -63 0z"/>
</g>
</svg>
