<svg xmlns="http://www.w3.org/2000/svg" viewBox="0 0 135.805 112.124"><g fill="#D9380B"><path d="M67.894 111.579l-.52.458.481.087.039-.545zm-5.298-2.27l.313-.01-.244-.07-.069.08zM58.679 8.6l-.088.553.088-.553zm3.824 100.563l.162.066.098-.188-.26.122zm-51.874-45.85l-.394-.748.394.748zM21.653 2.496l.165-.133-.165.133zM8.838 60.485l.087-.607-.175-.009.088.616zM23.286 1.602l.045.135.1-.163-.145.028zm29.226 100.332l.306.461-.306-.461zm2.136 1.846l.183-.167-.003-.005-.18.172zM20.427 74.932l-.092-.064.092.064zm10.232 8.672l-.49-.104.49.104zM10.672 63.396l.009-.004-.052-.079.043.083zM29.73 83.064l.439.436-.439-.436zm35.066 27.714l.062-.068-.164-.024.102.092zm.062-.068l.162.023-.162-.023zm.506.069l-.344-.046.344.046zm-4.66-2.868l.719.83.117-.117-.836-.713zm-26.133-20.03l.075.492.446-.23-.521-.262zm72.035-5.063l-.046.24.046-.24zm2.691-1.626l-.159.097.159-.097zM93.454 94.15l-.502.135.502-.135zm-6.399 5.354l-.116.088.064.288.052-.376zm-4.837 3.614l-.257-.777-.022.486.279.291zm31.503-25.482l-.025.011.025-.011zm21.421-46.843l-1.204.022 1.204-.022zm-13.617 36.572l.278.041-.278-.041zm2.521-4.544l.231-.27-.087.008-.144.262zm2.769-4.446l-.145.028-.058.158.203-.186z"/><path d="M134.528 29.439l.595.312.682-1.161-.588-.829-.442.863-.084-2.572.478.345-1.778-2.934.545-.149-1.249-2.378-.995-2.146.321-.013-.65-.721.272-.161-.909-.926.466.147-1.264-1.624-1.634-1.094-.109-2.317.112-.06-1.962-1.727-2.241-1.211-1.508-2.061-2.297-1.988-.713.463-.805-.745.117.093-1.346-1.375-.571.896-1.049-1.168-1.516-.471-2.198-1.152-1.447.175.164-.543-3.093-.747.36-.357-1.98 1.4-.114-.87-1.031-.241-1.041-.218-2.101.216.292-.39-2.296.626-2.151.385.059-.561-1.375 1.311.049-.315-1.313.437.245-.398-.922.713-1.539-.289-.73.774.072-.396-1.345.466-1.083.359-.235-.271 1.571-.431-.524-1.221-2.002 1.727-.154-.135.054-.079-.419.233-.641.065-1.257.275.368.861.26-.213.125-.118-.004.056.85-.406-.864.605-.122 1.043-2.206-.88-2.456 2.706-.655-.151.319-.474-1.336 1.801-.861-.128.008-.27-2.254 1.891-2.442 1.891.386.03-6.647 5.151-.174.113-1.731-1.111.297.028-.384-1.083-1.95.185 1.236-1.102-1.439.266.059-1.103-1.165.023-.345-1.1.663-.288-1.15.532-.012-1.207-1.719-.259.18-.264-2.556-.938.027-.205-.493.892-.64-.463.466-.08-.425-.04.849-.328-2.103-.709.926-.385.571.712.536-.932-2.149-1.22-.641.705-1.749-1.961-1.552.152.617-.544-1.881-.311.788.01-1.203-.094.175-.666-3.848-.788.2-.59-2.531-.79L42.073.581l-.367.211-.368.236-.04-.39-.448.54-.157-.544-2.245.306-2.186-.361.241-.161-1.91.549.163-.095-5.743-.211-1.944 1.099-2.639-.563-.904 1.123-.196-.584-.484.865-.604-.563-.424.325.526.29-2.094-.018-.244.18-.509.45-.727.652.201-.527-.9.245.146.476-1.057.184-1.029.732-.094-.443L14.2 5.832l-1.768 1.545.617.794-.557-.389.374.647-.657-.695-.408.617-.227-.516-1.181 1.182-.163-.111-1.28 1.425-.975 1.384.121 1.25-2.242 2.175.361.911-1.002.086-.647 1.448-.47 1.809.543-.054-.679.398-.016-.096L2.5 22.389l-.91 2.665-.031-.096.176 1.653-.711-.046-.034 2.189-.111 1.925-.76 2.499L0 36.048l.347-.114-.201.755.491-.223 1.162 9.756 1.615 1.733-.771-.173 3.356 6.326-.476-.176 1.13 1.449-.357.524.818 1.242-.279-.106 1 .787 1.091 2.05 1.323 1.067.844 1.867-.411.58 1.127.537 1.253 2.679 3.926 3.461-1.888-.722 3.209 2.526-.646.068 3.144 3.045-.379-.054.609.259-.26-.121 1.908-.211-.902 1.657.644-.101-.353.432 1.494.658-.558.151 1.561.763-.32.058 2.944 2.081-.344 1.116.685.373.043-.47 1.484 1.046-.564-.116.98.748-.302-.684 1.084.021.402 1.011h-.003l1.035.554-.687.706 1.985.695-.496.398.538-.193-.155.61.947.13-.294-.003 2.351 1.995-.938.26 3.777 2.297-.145-.229 1.318 1.125-.438.248 2.995 1.677-.31.101 1.459 1.506.633-.296 3.852 3.529-.395.003 1.278.644-.002-.801 1.027.161-.368.969.282-.341 1.131.358-.186.165 1.129.357-.747.309 1.605.567-.848-.239.517 1.067-.025-.035.624.788-.102-.281 2.638.427-.816.781.122.723 1.341.52.03.637.254-.534 2.921 1.831 2.495.106.247.16-.634.331 1.281.84-.147.541.951.098-.783.433 1.683.207-.817.358 1.899.191-.22-.364-.336.451-.44-.727.382.092-1.97-1.097.579-.436 2.939 1.833-.026.035.103.241-1.107.968 1.267-.549.159.63.665.089-.112-.414.347-.211.636.388.051-.806 3.547-2.202.034.161.062-.221.612-.392-.043.349.876-.373.062.132.307-.494.056.52 1.582-1.018-.038.087.117-1.103.51-.339.949.609-.232-.579.468.064-.196-.662 2.005-.5-.324-.603 1.322-.541.294.69 1.378-.932 1.266-1.561 2.308-.854.053.112.809-1.517.12.918.444-.333.266-.754.216.524 1.782-1.687-.969-.887.399-.302.071.433.311-.381-.034.615.241-.624.525.346-.345.256 1.172-.144-.131-.636.956.117.166-.863.539.136.622-1.395-.102.029.033-.059 3.03-2.355.125.154 1.315-1.82.706.179 1.071-.977-.279.572 1.253-1.144 1-.235-.625.072.824-.714.299.625 2.87-2.623-.931-.327 1.915-.345.878-1.823-.4-1.134 1.122.566-.268.069.133.491-.099-.234 1.2-.315-.476-.252 1.82-1.459-.384-.192.668-1.458.918-.128.516.648 1.7-1.227-.168.455.408-.589-.52-.141.534-.153-.661-1.068 1.072-.607-.007 1.09.457-.476.049.194.537-1.635.732.081-.515-.719.618-.945-.374.222.321-1.006.062.407 1.446-1.341.854.278 1.233-1.321-.436-.774-.658 1.342.054-1.165-.584 1.054-.389-.57 1.231-1.408.905.759 1.743-2.719-.427.222.567-1.168.883.134.047-1.351.773-.189.513-2.445.529 1.022.218-.669.585-1.173-.139-.796.163.107-.44-.608 2.896-2.86.904-2.234.073.191.138-1.823.42.474 1.439-1.594-.011.194.591-2.272.178.083-.15-1.432.187-1.477.651.5-.672-.976 1.328-.479-.238.715.563-1.258.279.149-.062-2.556-.265.055.19-1.226.814.004-.339-2.504.747 2.197-.023-1.804.017.601-.481-2.279 1.111-1.004.865-1.709.068-2.452.232-1.295.005-1.381-1.279-.363-.018-.627-.045.092.052-.097h-.003l.324-.683.27-.695zM87.062 3.286l-.002.075-.014-.301.399-.014-.383.24zm-41.43.045l-.369-.556.644.245-.275.311zm1.137-.059l.379.098-.383-.087.004-.011zm.13 93.605l.275-.391.399.302-.674.089zm12.545 8.916l.09-.51.508.338-.598.172zm3.338 2.25l.18-.521.609.391-.789.13zm3.773 2.37l.164-.288.323.005-.017-.07.192.117.021.326-.683-.09zm7.113-3.318l-.102-.039.245-.158-.143.197z"/><path d="M86.909 3.924l-.079.079.186.057.014-.199-.121.063zm5.85 90.415l-.103-.02.07.03.033-.01zm-14.051 10.478l-.874.395.274.492.6-.887zm2.596-1.401l.234.372-.234-.372zm16.819-12.927l.293.423-.293-.423zm5.447-3.355l.358-.585-.281.413-.077.172zm23.194-27.705l-.604-.219.604.219zm5.821-14.587l.442-.799-.442.799zM116.968 3.243l-.64-.121.25.163.39-.042z"/></g></svg>