<svg xmlns="http://www.w3.org/2000/svg" viewBox="0 0 135.805 112.124"><g fill="#D9380B"><path d="M67.894 111.58l-.52.457.48.087.04-.545m-5.298-2.269l.313-.01-.245-.07-.07.08M58.68 8.6l-.09.553.09-.553m3.823 100.563l.162.066.098-.19-.26.123M10.63 63.313l-.395-.748.394.748M21.653 2.496l.165-.133-.165.133M8.838 60.485l.087-.607-.175-.01.088.617M23.286 1.602l.045.135.1-.163-.144.028m29.225 100.332l.306.46-.306-.46m2.136 1.846l.183-.167-.002-.005-.18.172M20.427 74.932l-.092-.064.092.064m10.233 8.672l-.49-.104.49.104"/><path d="M10.672 63.396l.01-.004-.053-.08.042.084M29.73 83.064l.44.436-.44-.436m35.066 27.714l.062-.068-.164-.024.102.092m.062-.068l.162.023-.162-.023m.506.07l-.344-.047.344.046m-4.66-2.869l.72.83.116-.116-.836-.713M34.57 87.88l.076.493.446-.23-.52-.262m72.034-5.063l-.046.24.046-.24m2.691-1.626l-.16.097.16-.098M93.454 94.15l-.502.135.502-.135m-6.399 5.354l-.116.088.063.288.052-.376m-4.836 3.614l-.257-.777-.02.487.278.29m31.501-25.482l-.024.01.025-.01m21.421-46.843l-1.204.022 1.204-.022m-13.617 36.572l.278.04-.278-.04m2.521-4.545l.23-.27-.086.01-.144.26m2.769-4.445l-.145.028-.058.158.203-.185"/><path d="M134.528 29.44l.595.31.682-1.16-.588-.83-.442.864-.084-2.572.48.345-1.78-2.934.546-.15-1.25-2.377-.994-2.146.32-.013-.65-.72.273-.162-.91-.926.467.146-1.264-1.624-1.634-1.094-.11-2.317.113-.06-1.962-1.726-2.24-1.21-1.51-2.062-2.296-1.988-.714.463-.805-.745.118.093-1.346-1.375-.57.896-1.05-1.168-1.516-.47-2.198-1.153-1.447.175.165-.543-3.093-.747.36-.357-1.98 1.4-.114-.87-1.03-.24-1.042-.22-2.1.217.29-.39-2.295.626-2.15.385.06-.56-1.376 1.31.05-.314-1.314.437.245-.398-.922.713-1.54-.29-.73.775.073-.396-1.345.466-1.082.36-.235-.272 1.57-.43-.523-1.22-2.002 1.726-.154-.135.054-.078-.42.233-.64.065-1.257.275.37.86.26-.212.124-.118-.004.056.85-.405-.864.605-.122 1.043-2.206-.88-2.456 2.706-.655-.152.32-.474-1.337 1.8-.86-.127.007-.27-2.254 1.89-2.442 1.892.387.03-6.647 5.15-.174.113-1.73-1.11.296.027-.384-1.083-1.95.185 1.236-1.102-1.44.266.06-1.103-1.165.023-.346-1.1.663-.288-1.15.532-.012-1.207-1.72-.26.18-.263-2.555-.938.027-.205-.493.892-.64-.464.466-.08-.425-.04.85-.328-2.104-.71.927-.384.57.712.537-.932-2.15-1.22-.64.705-1.75-1.962-1.55.152.616-.544-1.88-.31.787.01-1.203-.095.175-.665-3.85-.788.2-.59-2.53-.79L42.073.58l-.367.212-.368.236-.04-.39-.448.54-.157-.544-2.245.306-2.186-.36.24-.162-1.91.55.164-.096-5.743-.21L27.07 1.76l-2.64-.563-.904 1.123-.196-.584-.484.865-.604-.562-.424.325.526.29-2.094-.018-.244.18-.51.45-.726.652.2-.527-.9.245.147.476-1.057.185-1.03.732-.093-.443L14.2 5.832l-1.768 1.545.617.794-.558-.388.374.647-.657-.696-.41.617-.226-.515-1.18 1.182-.164-.11-1.28 1.424-.975 1.385.12 1.25-2.24 2.175.36.91-1.002.087-.647 1.448-.47 1.81.543-.055-.68.398-.016-.096L2.5 22.39l-.91 2.664-.03-.096.175 1.653-.71-.045-.035 2.19-.11 1.924-.76 2.498-.12 2.87.347-.114-.2.755.49-.224L1.8 46.222l1.614 1.733-.77-.173 3.355 6.326-.477-.176 1.13 1.45-.357.523.818 1.242-.28-.106 1 .788 1.092 2.05 1.323 1.067.843 1.867-.41.58 1.126.537 1.252 2.678 3.926 3.46-1.888-.72 3.21 2.525-.647.068 3.144 3.046-.38-.054.61.26-.26-.122 1.908-.21-.902 1.656.644-.1-.353.43 1.494.66-.558.15 1.56.763-.32.057 2.945 2.08-.344 1.117.686.373.043-.47 1.483 1.046-.564-.116.98.748-.303-.684 1.084.022.403 1.01h-.003l1.035.555-.687.706 1.985.695-.496.398.538-.193-.155.61.947.13-.294-.003 2.35 1.995-.937.26 3.777 2.297-.145-.23 1.318 1.126-.438.248 2.995 1.677-.31.1 1.46 1.507.632-.296 3.852 3.53-.395.002 1.278.644-.002-.8 1.027.16-.368.97.282-.342 1.13.358-.186.165 1.13.358-.748.31 1.605.566-.847-.24.517 1.068-.025-.035.624.788-.103-.28 2.638.426-.816.782.12.723 1.342.52.03.637.254-.534 2.92 1.83 2.496.107.247.16-.635.33 1.28.84-.146.542.95.098-.783.433 1.683.207-.817.358 1.9.19-.22-.363-.337.45-.44-.726.382.092-1.97-1.097.58-.437 2.938 1.833-.026.035.103.242-1.107.968 1.267-.55.16.63.664.09-.112-.414.347-.21.636.387.05-.806 3.548-2.202.034.16.062-.22.612-.392-.043.35.877-.374.062.13.306-.493.056.52 1.582-1.018-.038.086.117-1.103.51-.34.95.61-.233-.58.468.065-.196-.662 2.005-.5-.324-.603 1.322-.54.294.69 1.377-.933 1.266-1.56 2.308-.855.054.112.81-1.517.12.918.443-.333.266-.754.216.525 1.78-1.687-.968-.887.4-.3.07.432.31-.38-.033.614.24-.624.525.346-.345.256 1.172-.144-.13-.636.955.117.166-.862.54.136.62-1.395-.1.028.032-.06 3.03-2.354.125.154 1.315-1.82.706.18 1.072-.978-.28.572 1.254-1.144 1-.235-.625.072.825-.714.3.626 2.87-2.623-.932-.327 1.915-.345.878-1.822-.4-1.134 1.122.566-.268.07.133.49-.1-.234 1.2-.315-.475-.25 1.82-1.46-.384-.192.668-1.458.918-.128.516.648 1.7-1.227-.168.455.408-.59-.52-.14.534-.153-.66-1.068 1.07-.607-.006 1.09.457-.476.05.194.537-1.635.732.08-.516-.718.618-.945-.374.222.32-1.006.063.407 1.447-1.34.854.277 1.234-1.32-.436-.775-.658 1.342.054-1.165-.584 1.054-.39-.57 1.232-1.408.905.76 1.743-2.72-.427.222.567-1.168.883.134.047-1.35.773-.19.513-2.445.53 1.023.217-.67.585-1.172-.14-.795.164.107-.44-.608 2.896-2.86.904-2.234.073.19.138-1.822.42.474 1.44-1.594-.012.194.592-2.272.178.083-.15-1.432.187-1.476.65.5-.67-.976 1.327-.48-.238.716.563-1.258.278.15-.062-2.557-.265.054.19-1.226.815.004-.34-2.504.748 2.197-.023-1.804.017.602-.48-2.28 1.11-1.003.865-1.71.068-2.452.232-1.295.005-1.38-1.28-.364-.017-.628-.045.092.052-.097h-.003l.324-.683.27-.695zM87.062 3.285l-.002.075-.014-.3.4-.014-.384.24zm-41.43.045l-.37-.555.645.245-.275.31zm1.137-.058l.378.098-.383-.087.004-.01zm.13 93.605l.274-.39.4.3-.675.09zm12.544 8.916l.09-.51.508.338-.598.173zm3.338 2.25l.18-.52.61.39-.79.13zm3.773 2.37l.164-.288.322.005-.017-.07.192.117.02.326-.682-.09zm7.113-3.318l-.102-.04.245-.157-.142.197z"/><path d="M86.91 3.924l-.08.08.186.056.014-.2-.12.064m5.85 90.416l-.104-.02.07.03.033-.01m-14.051 10.477l-.874.395.274.492.6-.887m2.596-1.401l.234.372-.234-.372M98.123 90.49l.293.422-.293-.423m5.447-3.355l.358-.585-.28.412-.078.172m23.194-27.703l-.604-.22.604.22m5.821-14.588l.442-.8-.442.8M116.968 3.243l-.64-.12.25.162.39-.042"/></g></svg>