<?xml version="1.0" encoding="utf-8"?>
<!-- Generator: Adobe Illustrator 19.1.0, SVG Export Plug-In . SVG Version: 6.00 Build 0)  -->
<svg version="1.1" xmlns="http://www.w3.org/2000/svg" xmlns:xlink="http://www.w3.org/1999/xlink" x="0px" y="0px"
	 viewBox="0 0 135.805 112.124" enable-background="new 0 0 135.805 112.124" xml:space="preserve">
<g id="icon-heart-2">
	<g>
		<polygon fill="#D9380B" points="67.894,111.579 67.374,112.037 67.855,112.124 67.894,111.579 		"/>
		<polygon fill="#D9380B" points="62.596,109.309 62.909,109.299 62.665,109.229 62.596,109.309 		"/>
		<polygon fill="#D9380B" points="58.679,8.6 58.591,9.153 58.679,8.6 		"/>
		<polygon fill="#D9380B" points="62.503,109.163 62.665,109.229 62.763,109.041 62.503,109.163 		"/>
		<polygon fill="#D9380B" points="10.629,63.313 10.235,62.565 10.629,63.313 		"/>
		<polygon fill="#D9380B" points="21.653,2.496 21.818,2.363 21.653,2.496 		"/>
		<polygon fill="#D9380B" points="8.838,60.485 8.925,59.878 8.75,59.869 8.838,60.485 		"/>
		<polygon fill="#D9380B" points="23.286,1.602 23.331,1.737 23.431,1.574 23.286,1.602 		"/>
		<polygon fill="#D9380B" points="52.512,101.934 52.818,102.395 52.512,101.934 		"/>
		<polygon fill="#D9380B" points="54.648,103.78 54.831,103.613 54.828,103.608 54.648,103.78 		"/>
		<polygon fill="#D9380B" points="20.427,74.932 20.335,74.868 20.427,74.932 		"/>
		<polygon fill="#D9380B" points="30.659,83.604 30.169,83.5 30.659,83.604 		"/>
		<polygon fill="#D9380B" points="10.672,63.396 10.681,63.392 10.629,63.313 10.672,63.396 		"/>
		<polygon fill="#D9380B" points="29.73,83.064 30.169,83.5 29.73,83.064 		"/>
		<polygon fill="#D9380B" points="64.796,110.778 64.858,110.71 64.694,110.686 64.796,110.778 		"/>
		<polygon fill="#D9380B" points="64.858,110.71 65.02,110.733 64.858,110.71 		"/>
		<polygon fill="#D9380B" points="65.364,110.779 65.02,110.733 65.364,110.779 		"/>
		<polygon fill="#D9380B" points="60.704,107.911 61.423,108.741 61.54,108.624 60.704,107.911 		"/>
		<polygon fill="#D9380B" points="34.571,87.881 34.646,88.373 35.092,88.143 34.571,87.881 		"/>
		<polygon fill="#D9380B" points="106.606,82.818 106.56,83.058 106.606,82.818 		"/>
		<polygon fill="#D9380B" points="109.297,81.192 109.138,81.289 109.297,81.192 		"/>
		<polygon fill="#D9380B" points="93.454,94.15 92.952,94.285 93.454,94.15 		"/>
		<polygon fill="#D9380B" points="87.055,99.504 86.939,99.592 87.003,99.88 87.055,99.504 		"/>
		<polygon fill="#D9380B" points="82.218,103.118 81.961,102.341 81.939,102.827 82.218,103.118 		"/>
		<polygon fill="#D9380B" points="113.721,77.636 113.696,77.647 113.721,77.636 		"/>
		<polygon fill="#D9380B" points="135.142,30.793 133.938,30.815 135.142,30.793 		"/>
		<polygon fill="#D9380B" points="121.525,67.365 121.803,67.406 121.525,67.365 		"/>
		<polygon fill="#D9380B" points="124.046,62.821 124.277,62.551 124.19,62.559 124.046,62.821 		"/>
		<polygon fill="#D9380B" points="126.815,58.375 126.67,58.403 126.612,58.561 126.815,58.375 		"/>
		<path fill="#D9380B" d="M134.528,29.439l0.595,0.312l0.682-1.161l-0.588-0.829l-0.442,0.863l-0.084-2.572l0.478,0.345
			l-1.778-2.934l0.545-0.149l-1.249-2.378l-0.995-2.146l0.321-0.013l-0.65-0.721l0.272-0.161l-0.909-0.926l0.466,0.147l-1.264-1.624
			l-1.634-1.094l-0.109-2.317l0.112-0.06l-1.962-1.727l-2.241-1.211l-1.508-2.061l-2.297-1.988l-0.713,0.463l-0.805-0.745
			l0.117,0.093l-1.346-1.375l-0.571,0.896l-1.049-1.168l-1.516-0.471l-2.198-1.152l-1.447,0.175l0.164-0.543l-3.093-0.747
			l0.36-0.357l-1.98,1.4l-0.114-0.87l-1.031-0.241l-1.041-0.218l-2.101,0.216L102.217,0l-2.296,0.626L97.77,1.011l0.059-0.561
			l-1.375,1.311l0.049-0.315l-1.313,0.437l0.245-0.398l-0.922,0.713l-1.539-0.289l-0.73,0.774l0.072-0.396l-1.345,0.466
			l-1.083,0.359l-0.235-0.271l1.571-0.431L90.7,1.189l-2.002,1.727l-0.154-0.135l0.054-0.079l-0.419,0.233L87.538,3l-1.257,0.275
			l0.368,0.861l0.26-0.213l0.125-0.118L87.03,3.861l0.85-0.406L87.016,4.06l-0.122,1.043l-2.206-0.88l-2.456,2.706l-0.655-0.151
			l0.319-0.474L80.56,8.105l-0.861-0.128l0.008-0.27l-2.254,1.891l-2.442,1.891l0.386,0.03l-6.647,5.151l-0.174,0.113l-1.731-1.111
			l0.297,0.028l-0.384-1.083l-1.95,0.185l1.236-1.102l-1.439,0.266l0.059-1.103l-1.165,0.023l-0.345-1.1l0.663-0.288l-1.15,0.532
			l-0.012-1.207l-1.719-0.259l0.18-0.264l-2.556-0.938l0.027-0.205l-0.493,0.892l-0.64-0.463l0.466-0.08l-0.425-0.04l0.849-0.328
			l-2.103-0.709l0.926-0.385l0.571,0.712l0.536-0.932l-2.149-1.22l-0.641,0.705l-1.749-1.961l-1.552,0.152L52.8,4.956l-1.881-0.311
			l0.788,0.01l-1.203-0.094l0.175-0.666l-3.848-0.788l0.2-0.59L44.5,1.727l-2.427-1.146l-0.367,0.211l-0.368,0.236l-0.04-0.39
			l-0.448,0.54l-0.157-0.544L38.448,0.94l-2.186-0.361l0.241-0.161l-1.91,0.549l0.163-0.095l-5.743-0.211L27.069,1.76l-2.639-0.563
			l-0.904,1.123l-0.196-0.584l-0.484,0.865l-0.604-0.563l-0.424,0.325l0.526,0.29L20.25,2.635l-0.244,0.18l-0.509,0.45L18.77,3.917
			l0.201-0.527l-0.9,0.245l0.146,0.476l-1.057,0.184l-1.029,0.732l-0.094-0.443L14.2,5.832l-1.768,1.545l0.617,0.794l-0.557-0.389
			l0.374,0.647l-0.657-0.695l-0.408,0.617l-0.227-0.516l-1.181,1.182L10.23,8.906l-1.28,1.425l-0.975,1.384l0.121,1.25L5.854,15.14
			l0.361,0.911l-1.002,0.086l-0.647,1.448l-0.47,1.809l0.543-0.054l-0.679,0.398l-0.016-0.096l-1.444,2.747L1.59,25.054
			l-0.031-0.096l0.176,1.653l-0.711-0.046l-0.034,2.189l-0.111,1.925l-0.76,2.499L0,36.048l0.347-0.114l-0.201,0.755l0.491-0.223
			l1.162,9.756l1.615,1.733l-0.771-0.173l3.356,6.326l-0.476-0.176l1.13,1.449l-0.357,0.524l0.818,1.242l-0.279-0.106l1,0.787
			l1.091,2.05l1.323,1.067l0.844,1.867l-0.411,0.58l1.127,0.537l1.253,2.679l3.926,3.461l-1.888-0.722l3.209,2.526l-0.646,0.068
			l3.144,3.045l-0.379-0.054l0.609,0.259l-0.26-0.121l1.908-0.211l-0.902,1.657l0.644-0.101l-0.353,0.432l1.494,0.658l-0.558,0.151
			l1.561,0.763l-0.32,0.058l2.944,2.081l-0.344,1.116l0.685,0.373l0.043-0.47l1.484,1.046l-0.564-0.116l0.98,0.748l-0.302-0.684
			l1.084,0.021l0.402,1.011l-0.003,0l1.035,0.554l-0.687,0.706l1.985,0.695l-0.496,0.398l0.538-0.193l-0.155,0.61l0.947,0.13
			l-0.294-0.003l2.351,1.995l-0.938,0.26l3.777,2.297l-0.145-0.229l1.318,1.125l-0.438,0.248l2.995,1.677l-0.31,0.101l1.459,1.506
			l0.633-0.296l3.852,3.529l-0.395,0.003l1.278,0.644l-0.002-0.801l1.027,0.161l-0.368,0.969l0.282-0.341l1.131,0.358l-0.186,0.165
			l1.129,0.357l-0.747,0.309l1.605,0.567l-0.848-0.239l0.517,1.067l-0.025-0.035l0.624,0.788l-0.102-0.281l2.638,0.427l-0.816,0.781
			l0.122,0.723l1.341,0.52l0.03,0.637l0.254-0.534l2.921,1.831l2.495,0.106l0.247,0.16l-0.634,0.331l1.281,0.84l-0.147,0.541
			l0.951,0.098l-0.783,0.433l1.683,0.207l-0.817,0.358l1.899,0.191l-0.22-0.364l-0.336,0.451l-0.44-0.727l0.382,0.092l-1.97-1.097
			l0.579-0.436l2.939,1.833l-0.026,0.035l0.103,0.241l-1.107,0.968l1.267-0.549l0.159,0.63l0.665,0.089l-0.112-0.414l0.347-0.211
			l0.636,0.388l0.051-0.806l3.547-2.202l0.034,0.161l0.062-0.221l0.612-0.392l-0.043,0.349l0.876-0.373l0.062,0.132l0.307-0.494
			l0.056,0.52l1.582-1.018l-0.038,0.087l0.117-1.103l0.51-0.339l0.949,0.609l-0.232-0.579l0.468,0.064l-0.196-0.662l2.005-0.5
			l-0.324-0.603l1.322-0.541l0.294,0.69l1.378-0.932l1.266-1.561l2.308-0.854l0.053,0.112l0.809-1.517l0.12,0.918l0.444-0.333
			l0.266-0.754l0.216,0.524l1.782-1.687l-0.969-0.887l0.399-0.302l0.071,0.433l0.311-0.381l-0.034,0.615l0.241-0.624l0.525,0.346
			L89.4,97.134l1.172-0.144l-0.131-0.636l0.956,0.117l0.166-0.863l0.539,0.136l0.622-1.395l-0.102,0.029l0.033-0.059l3.03-2.355
			l0.125,0.154l1.315-1.82l0.706,0.179l1.071-0.977l-0.279,0.572l1.253-1.144l1-0.235l-0.625,0.072l0.824-0.714l0.299,0.625
			l2.87-2.623l-0.931-0.327l1.915-0.345l0.878-1.823l-0.4-1.134l1.122,0.566l-0.268,0.069l0.133,0.491l-0.099-0.234l1.2-0.315
			l-0.476-0.252l1.82-1.459l-0.384-0.192l0.668-1.458l0.918-0.128l0.516,0.648l1.7-1.227l-0.168,0.455l0.408-0.589l-0.52-0.141
			l0.534-0.153l-0.661-1.068l1.072-0.607l-0.007,1.09l0.457-0.476l0.049,0.194l0.537-1.635l0.732,0.081l-0.515-0.719l0.618-0.945
			l-0.374,0.222l0.321-1.006l0.062,0.407l1.446-1.341l0.854,0.278l1.233-1.321l-0.436-0.774l-0.658,1.342l0.054-1.165l-0.584,1.054
			l-0.389-0.57l1.231-1.408l0.905,0.759l1.743-2.719l-0.427,0.222l0.567-1.168l0.883,0.134l0.047-1.351l0.773-0.189l0.513-2.445
			l0.529,1.022l0.218-0.669l0.585-1.173l-0.139-0.796l0.163,0.107l-0.44-0.608l2.896-2.86l0.904-2.234l0.073,0.191l0.138-1.823
			l0.42,0.474l1.439-1.594l-0.011,0.194l0.591-2.272l0.178,0.083l-0.15-1.432l0.187-1.477l0.651,0.5l-0.672-0.976l1.328-0.479
			l-0.238,0.715l0.563-1.258l0.279,0.149l-0.062-2.556l-0.265,0.055l0.19-1.226l0.814,0.004l-0.339-2.504l0.747,2.197l-0.023-1.804
			l0.017,0.601l-0.481-2.279l1.111-1.004l0.865-1.709l0.068-2.452l0.232-1.295l0.005-1.381l-1.279-0.363l-0.018-0.627l-0.045,0.092
			l0.052-0.097l-0.003,0l0.324-0.683L134.528,29.439L134.528,29.439z M87.062,3.286L87.06,3.361L87.046,3.06l0.399-0.014
			L87.062,3.286L87.062,3.286z M45.632,3.331l-0.369-0.556l0.644,0.245L45.632,3.331L45.632,3.331z M46.769,3.272l0.379,0.098
			l-0.383-0.087L46.769,3.272L46.769,3.272z M46.899,96.877l0.275-0.391l0.399,0.302L46.899,96.877L46.899,96.877z M59.444,105.793
			l0.09-0.51l0.508,0.338L59.444,105.793L59.444,105.793z M62.782,108.043l0.18-0.521l0.609,0.391L62.782,108.043L62.782,108.043z
			 M66.555,110.413l0.164-0.288l0.323,0.005l-0.017-0.07l0.192,0.117l0.021,0.326L66.555,110.413L66.555,110.413z M73.668,107.095
			l-0.102-0.039l0.245-0.158L73.668,107.095L73.668,107.095z"/>
		<polygon fill="#D9380B" points="86.909,3.924 86.83,4.003 87.016,4.06 87.03,3.861 86.909,3.924 		"/>
		<polygon fill="#D9380B" points="92.759,94.339 92.656,94.319 92.726,94.349 92.759,94.339 		"/>
		<polygon fill="#D9380B" points="78.708,104.817 77.834,105.212 78.108,105.704 78.708,104.817 		"/>
		<polygon fill="#D9380B" points="81.304,103.416 81.538,103.788 81.304,103.416 		"/>
		<polygon fill="#D9380B" points="98.123,90.489 98.416,90.912 98.123,90.489 		"/>
		<polygon fill="#D9380B" points="103.57,87.134 103.928,86.549 103.647,86.962 103.57,87.134 		"/>
		<polygon fill="#D9380B" points="126.764,59.429 126.16,59.21 126.764,59.429 		"/>
		<polygon fill="#D9380B" points="132.585,44.842 133.027,44.043 132.585,44.842 		"/>
		<polygon fill="#D9380B" points="116.968,3.243 116.328,3.122 116.578,3.285 116.968,3.243 		"/>
	</g>
</g>
<g id="Layer_1">
</g>
</svg>
